<svg xmlns="http://www.w3.org/2000/svg" width="20" height="17"><path fill="#845cff" d="M20 .772v15.455a.772.772 0 01-.77.772H.77a.772.772 0 01-.77-.772v-6.182c0-.426.345-.772.77-.772h3.845s1.539 0 1.539-1.546V.772c0-.426.345-.772.77-.772H19.23c.424 0 .769.346.769.772zm-3.077 6.955a.77.77 0 00-.77-.773.77.77 0 00-.768.773v1.546c0 .372-.464 1.545-1.539 1.545h-2.758l1.379-1.386c.3-.302.3-.79 0-1.092a.766.766 0 00-1.088 0l-2.692 2.704c-.3.302-.3.79 0 1.093l2.692 2.704a.765.765 0 001.088 0c.3-.302.3-.79 0-1.092l-1.38-1.386h2.76c2.048 0 3.076-1.981 3.076-3.09z"/></svg>